<svg width="21" height="18" viewBox="0 0 21 18" fill="none" xmlns="http://www.w3.org/2000/svg">
<path d="M20.25 0.962891H0.75C0.335156 0.962891 0 1.29805 0 1.71289V16.7129C0 17.1277 0.335156 17.4629 0.75 17.4629H20.25C20.6648 17.4629 21 17.1277 21 16.7129V1.71289C21 1.29805 20.6648 0.962891 20.25 0.962891ZM18.3563 3.51523L10.9617 9.26914C10.7789 9.41211 10.5234 9.41211 10.3406 9.26914L2.94375 3.51523C2.91587 3.49372 2.89541 3.46401 2.88526 3.43028C2.87511 3.39656 2.87576 3.3605 2.88713 3.32716C2.8985 3.29383 2.92002 3.26489 2.94867 3.24439C2.97731 3.2239 3.01165 3.21289 3.04688 3.21289H18.2531C18.2883 3.21289 18.3227 3.2239 18.3513 3.24439C18.38 3.26489 18.4015 3.29383 18.4129 3.32716C18.4242 3.3605 18.4249 3.39656 18.4147 3.43028C18.4046 3.46401 18.3841 3.49372 18.3563 3.51523Z" fill="#1570EF"/>
</svg>
