<svg width="64" height="62" viewBox="0 0 64 62" fill="none" xmlns="http://www.w3.org/2000/svg">
<g clip-path="url(#clip0_5066_3997)">
<path fill-rule="evenodd" clip-rule="evenodd" d="M33.7802 41.6343C29.5417 41.6343 26.1034 38.08 26.1034 33.6966C26.1034 29.3131 29.5417 25.7588 33.7802 25.7588C38.0187 25.7588 41.457 29.3131 41.457 33.6966C41.457 38.08 38.0187 41.6343 33.7802 41.6343ZM35.7514 35.5827C33.8313 35.5827 32.2725 33.8944 32.2725 31.8139C32.2725 29.7333 33.8313 28.045 35.7514 28.045C37.6715 28.045 39.2303 29.7333 39.2303 31.8139C39.2303 33.8944 37.6715 35.5827 35.7514 35.5827Z" fill="#1570EF"/>
<path fill-rule="evenodd" clip-rule="evenodd" d="M17.1921 30.929C17.8323 35.3724 19.1387 38.9781 20.2931 42.1644C22.1982 47.4228 23.6895 51.5391 21.09 56.3935C13.1697 71.1906 -6.26017 45.8813 2.70387 21.1518C9.58171 2.16815 24.5347 -0.0158859 34.4092 0.985879C29.1342 1.63808 24.5029 4.82491 21.615 7.87537L21.615 7.87541C15.3037 14.5425 16.1941 22.5217 17.0475 30.169C17.076 30.4249 17.1045 30.6805 17.1328 30.9356L17.1921 30.929ZM18.963 22.3874C18.9196 17.6652 19.8365 13.4035 23.4369 9.60013C27.0845 5.74717 33.3118 2.12208 39.595 3.79852C42.2253 4.5003 44.8745 6.3844 47.0481 8.8397C49.2183 11.2911 50.8065 14.1911 51.4071 16.7686C52.2394 20.3409 51.8478 24.4356 50.829 28.2987C50.5358 24.9606 49.6101 21.3373 47.3802 18.3575C41.553 10.5704 29.6725 8.05981 22.6276 16.2237C20.9985 18.1132 19.8169 20.2377 18.963 22.3874ZM50.1928 36.9795C48.5894 40.7955 46.712 43.9407 45.1828 45.7284C40.9617 50.6685 41.1182 57.2089 44.8523 59.7544C52.5291 64.9844 59.4406 55.4405 62.5194 41.8784C65.295 29.6751 58.0899 11.5096 46.1506 4.5156C47.1465 5.31813 48.0788 6.21914 48.9266 7.17676C51.3117 9.871 53.1363 13.1347 53.8504 16.1993C55.4585 23.1008 53.0582 31.3309 50.1928 36.9795Z" fill="#1570EF"/>
</g>
<defs>
<clipPath id="clip0_5066_3997">
<rect width="62.7193" height="60.4234" fill="white" transform="matrix(-1 0 0 1 63.0938 0.789062)"/>
</clipPath>
</defs>
</svg>
