<svg width="53" height="50" viewBox="0 0 53 50" fill="none" xmlns="http://www.w3.org/2000/svg">
<g clip-path="url(#clip0_4285_9109)">
<path fill-rule="evenodd" clip-rule="evenodd" d="M27.8075 33.7971C24.3001 33.7971 21.4548 30.8559 21.4548 27.2286C21.4548 23.6013 24.3001 20.6602 27.8075 20.6602C31.3149 20.6602 34.1602 23.6013 34.1602 27.2286C34.1602 30.8559 31.3149 33.7971 27.8075 33.7971ZM29.4336 28.7882C27.8447 28.7882 26.5548 27.3911 26.5548 25.6695C26.5548 23.9478 27.8447 22.5508 29.4336 22.5508C31.0225 22.5508 32.3125 23.9478 32.3125 25.6695C32.3125 27.3911 31.0225 28.7882 29.4336 28.7882Z" fill="white"/>
<path fill-rule="evenodd" clip-rule="evenodd" d="M14.0676 24.9419C14.5973 28.6189 15.6783 31.6026 16.6336 34.2393C18.2101 38.5906 19.4442 41.9968 17.2931 46.0138C10.7389 58.2583 -5.33951 37.315 2.07835 16.8515C7.76988 1.14256 20.1438 -0.664662 28.315 0.164325C23.9555 0.707778 20.1285 3.34202 17.7412 5.86366L17.7412 5.86369C12.5185 11.3807 13.2553 17.9834 13.9615 24.3116C13.9852 24.5233 14.0088 24.7348 14.0321 24.9459L14.0676 24.9419ZM15.5464 17.8404C15.5149 13.9455 16.2776 10.4296 19.2488 7.29092C22.2673 4.10262 27.4204 1.10287 32.6199 2.49012C34.7965 3.07084 36.9888 4.62993 38.7874 6.66167C40.5833 8.6902 41.8975 11.0899 42.3945 13.2228C43.0861 16.1909 42.7566 19.5948 41.9058 22.803C41.6669 20.0304 40.9023 17.0161 39.0487 14.5391C34.2266 8.0954 24.3953 6.01787 18.5656 12.7735C17.2259 14.3272 16.252 16.073 15.5464 17.8404ZM38.0983 3.12686C38.9024 3.77997 39.6556 4.51035 40.3419 5.28556C42.3156 7.51503 43.8255 10.2157 44.4164 12.7517C45.7622 18.5273 43.7155 25.4273 41.3091 30.105C39.9968 33.1929 38.4733 35.7347 37.2287 37.1898C33.7356 41.2777 33.8652 46.6898 36.9552 48.7961C43.3079 53.1239 49.0272 45.2264 51.575 34.0039C53.8665 23.9292 47.9372 8.94366 38.0983 3.12686Z" fill="white"/>
</g>
<defs>
<clipPath id="clip0_4285_9109">
<rect width="51.901" height="50" fill="white" transform="matrix(-1 0 0 1 52.0703 0)"/>
</clipPath>
</defs>
</svg>
