<svg width="200" height="201" viewBox="0 0 200 201" fill="none" xmlns="http://www.w3.org/2000/svg">
<g clip-path="url(#clip0_5065_3544)">
<rect y="0.357422" width="200" height="200" rx="3.33333" fill="#F8F9FC"/>
<g clip-path="url(#clip1_5065_3544)">
<path d="M180.173 21.9277H-230.291V274.182H180.173V21.9277Z" fill="white"/>
<path d="M180.174 274.182C179.94 274.282 -230.412 274.473 -230.657 274.544C-230.913 274.413 -230.627 22.149 -230.811 21.9278V21.4251H-230.3C-230.208 21.3045 180.368 21.7066 180.47 21.6262C180.675 21.8474 180.011 273.92 180.164 274.192L180.174 274.182ZM180.174 274.182C180.236 274.343 179.45 20.5806 180.174 22.2294L-230.29 22.4305L-229.779 21.9278C-229.82 21.7569 -229.453 275.78 -230.29 273.82L180.174 274.182Z" fill="#EAECF0"/>
<path d="M180.167 21.9277H-230.338V31.0564H180.167V21.9277Z" fill="#EAECF5"/>
<path d="M180.167 31.0547H-230.338V46.6478H180.167V31.0547Z" fill="#EAECF5"/>
<path d="M151.699 34.2324H-180.49V43.4817H151.699V34.2324Z" fill="white"/>
<path d="M151.788 43.5829H-180.596V34.1426H151.788V43.5829ZM-180.402 43.3919H151.594V34.3336H-180.402V43.3919Z" fill="#EAECF0"/>
<path d="M165.291 42.6479C164.893 42.8892 164.464 43.0701 163.984 43.1807C162.759 43.4723 161.524 43.2511 160.534 42.6378C159.564 42.0447 158.808 41.0896 158.522 39.9032C157.93 37.5105 159.421 35.0976 161.84 34.5145C164.27 33.9314 166.72 35.3992 167.313 37.7819C167.792 39.7022 166.914 41.6425 165.291 42.6278V42.6479Z" fill="#EAECF0"/>
<path d="M164.278 38.3553C164.278 39.0992 163.665 39.7125 162.9 39.7125C162.134 39.7125 161.521 39.1093 161.521 38.3553C161.521 37.6013 162.134 36.998 162.9 36.998C163.665 36.998 164.278 37.6013 164.278 38.3553Z" fill="white"/>
<path d="M165.291 42.0866V42.6496C164.893 42.8909 164.464 43.0719 163.984 43.1825C162.759 43.474 161.524 43.2528 160.533 42.6396V42.0866C160.533 40.7998 161.595 39.7441 162.912 39.7441C164.229 39.7441 165.291 40.7998 165.291 42.0866Z" fill="white"/>
<path d="M180.182 62.1094H172.902V274.179H180.182V62.1094Z" fill="#EAECF0"/>
<path d="M176.539 147.353C175.497 147.353 174.66 146.529 174.66 145.504V65.3967C174.66 64.3713 175.497 63.5469 176.539 63.5469C177.58 63.5469 178.417 64.3713 178.417 65.3967V145.493C178.417 146.519 177.58 147.343 176.539 147.343V147.353Z" fill="#D0D5DD"/>
<path d="M172.914 62.1094H-230.271V274.179H172.914V62.1094Z" fill="white"/>
<path d="M172.916 274.18C172.518 273.798 -231.076 275.306 -230.657 274.18C-230.146 273.677 -231.749 61.0643 -230.269 61.6072C-230.167 61.5067 173.11 61.8786 173.212 61.8083C173.427 62.0194 172.753 273.918 172.916 274.18ZM172.916 274.18L172.62 62.1099C174.519 62.8941 -230.698 62.3713 -230.269 62.6126C-229.166 59.4758 -230.116 274.874 -229.881 274.18C-232.535 273.315 173.6 274.381 172.916 274.18Z" fill="#EAECF0"/>
<path d="M172.914 62.1113H-230.271V100.043H172.914V62.1113Z" fill="#EAECF5"/>
<path d="M-1.37537 48.418H-72.7281L-75.9746 62.1109H1.87119L-1.37537 48.418Z" fill="#EAECF5"/>
<path d="M51.5709 192.064H-101.701V212.654H51.5709V192.064Z" fill="white" stroke="#EAECF0" stroke-width="2.11008" stroke-miterlimit="10"/>
<path d="M51.5571 192.064H30.6484V212.654H51.5571V192.064Z" fill="#EAECF0"/>
<path d="M43.9337 197.183C42.1573 194.91 38.8495 194.478 36.5422 196.227C34.2349 197.977 33.7958 201.234 35.5723 203.506C37.1649 205.547 39.9929 206.1 42.2287 204.934C42.4839 204.803 42.729 204.642 42.9638 204.471C43.3926 204.15 43.7601 203.768 44.0562 203.355C45.363 201.546 45.3834 199.042 43.9439 197.193L43.9337 197.183ZM41.6672 202.803C41.4324 202.983 41.1772 203.124 40.9117 203.225C39.6356 203.727 38.1246 203.366 37.2466 202.229C36.1848 200.872 36.4503 198.922 37.8285 197.876C39.2068 196.831 41.1874 197.092 42.2491 198.449C42.9638 199.364 43.0761 200.54 42.6575 201.536C42.4533 202.018 42.1164 202.461 41.6672 202.803Z" fill="white"/>
<path d="M23.831 169.754H-73.9434V176.44H23.831V169.754Z" fill="#EAECF5"/>
<path d="M11.7363 52.207H11.0625V58.3095H11.7363V52.207Z" fill="#EAECF0"/>
<path d="M14.5176 55.5952V54.9316H8.32054V55.5952H14.5176Z" fill="#EAECF0"/>
<path d="M172.914 62.1094H-230.271V274.179H172.914V62.1094Z" fill="white"/>
<path d="M172.916 274.18C172.518 273.798 -231.076 275.306 -230.657 274.18C-230.146 273.677 -231.749 61.0643 -230.269 61.6072C-230.167 61.5067 173.11 61.8786 173.212 61.8083C173.427 62.0194 172.753 273.918 172.916 274.18ZM172.916 274.18L172.62 62.1099C174.519 62.8941 -230.698 62.3713 -230.269 62.6126C-229.166 59.4758 -230.116 274.874 -229.881 274.18C-232.535 273.315 173.6 274.381 172.916 274.18Z" fill="#EAECF0"/>
<path d="M172.914 62.1094H-230.271V100.041H172.914V62.1094Z" fill="#EAECF5"/>
<path d="M51.5709 192.064H-101.701V212.654H51.5709V192.064Z" fill="white" stroke="#EAECF0" stroke-width="2.11008" stroke-miterlimit="10"/>
<path d="M51.5571 192.064H30.6484V212.654H51.5571V192.064Z" fill="#EAECF0"/>
<path d="M43.9337 197.183C42.1573 194.91 38.8495 194.478 36.5422 196.227C34.2349 197.977 33.7958 201.234 35.5723 203.506C37.1649 205.547 39.9929 206.1 42.2287 204.934C42.4839 204.803 42.729 204.642 42.9638 204.471C43.3926 204.15 43.7601 203.768 44.0562 203.355C45.363 201.546 45.3834 199.042 43.9439 197.193L43.9337 197.183ZM41.6672 202.803C41.4324 202.983 41.1772 203.124 40.9117 203.225C39.6356 203.727 38.1246 203.366 37.2466 202.229C36.1848 200.872 36.4503 198.922 37.8285 197.876C39.2068 196.831 41.1874 197.092 42.2491 198.449C42.9638 199.364 43.0761 200.54 42.6575 201.536C42.4533 202.018 42.1164 202.461 41.6672 202.803Z" fill="white"/>
<path d="M23.831 169.754H-73.9434V176.44H23.831V169.754Z" fill="#EAECF5"/>
<path d="M172.914 62.1094H-230.271V274.179H172.914V62.1094Z" fill="white"/>
<path d="M172.916 274.18C172.518 273.798 -231.076 275.306 -230.657 274.18C-230.146 273.677 -231.749 61.0643 -230.269 61.6072C-230.167 61.5067 173.11 61.8786 173.212 61.8083C173.427 62.0194 172.753 273.918 172.916 274.18ZM172.916 274.18L172.62 62.1099C174.519 62.8941 -230.698 62.3713 -230.269 62.6126C-229.166 59.4758 -230.116 274.874 -229.881 274.18C-232.535 273.315 173.6 274.381 172.916 274.18Z" fill="#D5D9EB"/>
<path d="M172.914 62.1113H-230.271V88.9544H172.914V62.1113Z" fill="#D5D9EB"/>
<path d="M63.1159 117.213H-156.332V125.767H63.1159V117.213Z" fill="#B3B8DB"/>
<path d="M63.1159 127.479H-156.332V136.033H63.1159V127.479Z" fill="#B3B8DB"/>
<path d="M63.1159 137.744H-156.332V146.299H63.1159V137.744Z" fill="#B3B8DB"/>
<path d="M64.1482 151.277H-156.117V155.383H64.1482V151.277Z" fill="#EAECF5"/>
<path d="M64.1482 169.855H-156.117V173.962H64.1482V169.855Z" fill="#EAECF5"/>
<path d="M64.1482 189.893H-156.117V193.999H64.1482V189.893Z" fill="#EAECF5"/>
<path d="M64.1482 179.879H-156.117V183.985H64.1482V179.879Z" fill="#EAECF5"/>
<path d="M64.1482 199.918H-156.117V204.024H64.1482V199.918Z" fill="#EAECF5"/>
<path opacity="0.6" d="M155.876 72.6582H-208.514V78.7909H155.876V72.6582Z" fill="white"/>
<rect x="88.0293" y="22.9023" width="92.5037" height="203.305" fill="#EAECF5"/>
<rect x="88.0293" y="22.9023" width="92.5037" height="19.9831" fill="#D5D9EB"/>
<rect x="91.9355" y="51.5977" width="84.6939" height="13.5424" rx="1.72652" fill="white"/>
<rect x="91.9355" y="68.9512" width="84.6939" height="82.3242" rx="1.72652" fill="white"/>
<g filter="url(#filter0_d_5065_3544)">
<rect x="93.6543" y="160.15" width="45.012" height="22.506" rx="4.8866" fill="#5080FF"/>
<rect x="91.0092" y="157.505" width="50.3022" height="27.7961" rx="7.53166" stroke="#5080FF" stroke-opacity="0.2" stroke-width="5.29013"/>
<path d="M108.634 169.34C108.606 169.06 108.487 168.842 108.276 168.687C108.066 168.532 107.78 168.455 107.419 168.455C107.174 168.455 106.967 168.489 106.798 168.559C106.629 168.626 106.499 168.72 106.409 168.84C106.321 168.96 106.277 169.097 106.277 169.249C106.273 169.377 106.299 169.488 106.357 169.583C106.417 169.678 106.499 169.76 106.603 169.829C106.708 169.896 106.828 169.955 106.964 170.006C107.101 170.055 107.247 170.096 107.402 170.131L108.04 170.284C108.35 170.353 108.635 170.446 108.894 170.561C109.153 170.677 109.378 170.819 109.567 170.988C109.757 171.157 109.904 171.356 110.008 171.585C110.115 171.814 110.169 172.077 110.171 172.373C110.169 172.808 110.058 173.185 109.838 173.504C109.621 173.821 109.306 174.068 108.894 174.244C108.485 174.417 107.991 174.504 107.412 174.504C106.838 174.504 106.339 174.416 105.913 174.24C105.489 174.064 105.159 173.804 104.92 173.459C104.684 173.112 104.56 172.683 104.549 172.172H106.003C106.019 172.41 106.087 172.609 106.208 172.769C106.33 172.926 106.494 173.045 106.697 173.126C106.903 173.205 107.136 173.244 107.395 173.244C107.649 173.244 107.87 173.207 108.058 173.133C108.247 173.059 108.394 172.956 108.498 172.824C108.603 172.692 108.655 172.541 108.655 172.37C108.655 172.21 108.607 172.076 108.512 171.967C108.42 171.858 108.283 171.766 108.103 171.689C107.925 171.613 107.706 171.544 107.447 171.481L106.673 171.287C106.074 171.141 105.6 170.913 105.253 170.603C104.906 170.293 104.734 169.875 104.736 169.35C104.734 168.92 104.848 168.544 105.08 168.222C105.314 167.901 105.634 167.65 106.041 167.469C106.448 167.289 106.911 167.198 107.429 167.198C107.957 167.198 108.417 167.289 108.811 167.469C109.206 167.65 109.514 167.901 109.734 168.222C109.954 168.544 110.067 168.916 110.074 169.34H108.634ZM112.674 174.504C112.334 174.504 112.031 174.445 111.765 174.327C111.499 174.207 111.288 174.03 111.133 173.796C110.981 173.56 110.904 173.266 110.904 172.914C110.904 172.618 110.959 172.37 111.068 172.168C111.176 171.967 111.324 171.805 111.512 171.682C111.699 171.56 111.912 171.467 112.15 171.405C112.391 171.342 112.643 171.298 112.907 171.273C113.217 171.24 113.467 171.21 113.657 171.183C113.846 171.153 113.984 171.109 114.07 171.051C114.155 170.993 114.198 170.907 114.198 170.794V170.773C114.198 170.553 114.129 170.383 113.99 170.263C113.853 170.143 113.659 170.082 113.407 170.082C113.141 170.082 112.929 170.141 112.772 170.259C112.614 170.375 112.51 170.521 112.459 170.697L111.092 170.586C111.161 170.262 111.298 169.982 111.501 169.746C111.705 169.507 111.968 169.325 112.289 169.197C112.613 169.068 112.988 169.003 113.414 169.003C113.71 169.003 113.993 169.038 114.264 169.107C114.537 169.177 114.779 169.284 114.989 169.43C115.202 169.576 115.37 169.763 115.493 169.992C115.615 170.219 115.676 170.491 115.676 170.808V174.403H114.274V173.664H114.233C114.147 173.831 114.033 173.978 113.889 174.105C113.746 174.23 113.573 174.328 113.372 174.4C113.171 174.469 112.938 174.504 112.674 174.504ZM113.098 173.484C113.315 173.484 113.507 173.441 113.674 173.355C113.841 173.267 113.971 173.149 114.066 173.001C114.161 172.853 114.208 172.685 114.208 172.498V171.932C114.162 171.962 114.098 171.99 114.018 172.016C113.939 172.039 113.85 172.061 113.75 172.081C113.651 172.1 113.551 172.117 113.452 172.134C113.352 172.147 113.262 172.16 113.181 172.172C113.008 172.197 112.856 172.238 112.726 172.293C112.597 172.349 112.496 172.424 112.425 172.519C112.353 172.611 112.317 172.727 112.317 172.866C112.317 173.067 112.39 173.221 112.536 173.327C112.684 173.432 112.871 173.484 113.098 173.484ZM121.602 169.072L119.739 174.403H118.073L116.209 169.072H117.771L118.878 172.887H118.934L120.037 169.072H121.602ZM124.617 174.507C124.068 174.507 123.596 174.396 123.201 174.174C122.807 173.95 122.504 173.633 122.291 173.223C122.079 172.811 121.972 172.324 121.972 171.762C121.972 171.214 122.079 170.733 122.291 170.318C122.504 169.904 122.804 169.582 123.19 169.35C123.579 169.119 124.035 169.003 124.558 169.003C124.909 169.003 125.237 169.06 125.54 169.173C125.845 169.284 126.111 169.452 126.338 169.676C126.567 169.901 126.745 170.183 126.873 170.523C127 170.861 127.063 171.257 127.063 171.71V172.116H122.562V171.2H125.672C125.672 170.987 125.625 170.799 125.533 170.634C125.44 170.47 125.312 170.342 125.148 170.249C124.986 170.154 124.797 170.107 124.582 170.107C124.358 170.107 124.159 170.159 123.985 170.263C123.814 170.365 123.68 170.502 123.582 170.676C123.485 170.847 123.436 171.038 123.433 171.249V172.12C123.433 172.383 123.482 172.611 123.579 172.803C123.678 172.995 123.818 173.143 123.999 173.248C124.179 173.352 124.393 173.404 124.641 173.404C124.805 173.404 124.956 173.381 125.092 173.334C125.229 173.288 125.346 173.219 125.443 173.126C125.54 173.034 125.614 172.92 125.665 172.786L127.032 172.876C126.963 173.205 126.821 173.492 126.605 173.737C126.392 173.98 126.117 174.17 125.779 174.306C125.444 174.44 125.056 174.507 124.617 174.507Z" fill="white"/>
</g>
<path d="M129.461 187.214L132.076 193.442L129.468 194.505L126.841 188.24L122.527 191.538V174.002L134.97 186.403L129.461 187.214Z" fill="#293056"/>
<path d="M122.684 171.667C122.442 171.281 122.385 170.894 122.373 170.507C122.379 170.12 122.435 169.733 122.684 169.346C122.933 169.733 122.989 170.12 122.995 170.507C122.983 170.894 122.927 171.281 122.684 171.667Z" fill="#293056"/>
<path d="M120.654 172.496C120.2 172.391 119.889 172.158 119.603 171.888C119.329 171.605 119.092 171.292 118.986 170.85C119.441 170.954 119.758 171.187 120.038 171.458C120.306 171.74 120.549 172.053 120.654 172.496Z" fill="#293056"/>
<path d="M119.81 174.5C119.418 174.74 119.026 174.795 118.633 174.808C118.241 174.801 117.849 174.746 117.457 174.5C117.849 174.255 118.241 174.2 118.633 174.193C119.026 174.206 119.418 174.261 119.81 174.5Z" fill="#293056"/>
<path d="M120.654 176.508C120.549 176.956 120.312 177.263 120.038 177.546C119.752 177.816 119.434 178.05 118.986 178.154C119.092 177.706 119.329 177.392 119.603 177.116C119.889 176.852 120.206 176.612 120.654 176.508Z" fill="#293056"/>
<path d="M125.553 174.5C125.945 174.261 126.337 174.206 126.729 174.193C127.121 174.2 127.513 174.255 127.906 174.5C127.513 174.746 127.121 174.801 126.729 174.808C126.337 174.795 125.945 174.74 125.553 174.5Z" fill="#293056"/>
<path d="M124.723 172.496C124.828 172.047 125.065 171.74 125.339 171.458C125.625 171.187 125.943 170.954 126.391 170.85C126.285 171.298 126.048 171.611 125.775 171.888C125.488 172.152 125.171 172.391 124.723 172.496Z" fill="#293056"/>
<path d="M171.884 74.3105H96.9355V76.9003H171.884V74.3105Z" fill="#EAECF5"/>
<path d="M171.884 80.3535H96.9355V82.9433H171.884V80.3535Z" fill="#EAECF5"/>
<path d="M171.884 86.3965H96.9355V88.9863H171.884V86.3965Z" fill="#EAECF5"/>
<path d="M171.884 92.4395H96.9355V95.0292H171.884V92.4395Z" fill="#EAECF5"/>
<path d="M171.884 98.4814H96.9355V101.071H171.884V98.4814Z" fill="#EAECF5"/>
<path d="M171.884 104.524H96.9355V107.114H171.884V104.524Z" fill="#EAECF5"/>
<path d="M171.884 110.567H96.9355V113.157H171.884V110.567Z" fill="#EAECF5"/>
<path d="M171.884 116.61H96.9355V119.2H171.884V116.61Z" fill="#EAECF5"/>
<path d="M171.884 122.653H96.9355V125.243H171.884V122.653Z" fill="#EAECF5"/>
<path d="M129.611 128.696H96.9355V131.286H129.611V128.696Z" fill="#EAECF5"/>
<path d="M141.852 57.1113H96.9355V60.5644H141.852V57.1113Z" fill="#D5D9EB"/>
</g>
<rect x="-230.404" y="21.9279" width="410.41" height="252.154" rx="3.69263" stroke="#4E5BA6" stroke-width="1.05504"/>
</g>
<defs>
<filter id="filter0_d_5065_3544" x="87.1416" y="154.25" width="58.037" height="35.5292" filterUnits="userSpaceOnUse" color-interpolation-filters="sRGB">
<feFlood flood-opacity="0" result="BackgroundImageFix"/>
<feColorMatrix in="SourceAlpha" type="matrix" values="0 0 0 0 0 0 0 0 0 0 0 0 0 0 0 0 0 0 127 0" result="hardAlpha"/>
<feOffset dy="0.610824"/>
<feGaussianBlur stdDeviation="0.610824"/>
<feColorMatrix type="matrix" values="0 0 0 0 0.0627451 0 0 0 0 0.0941176 0 0 0 0 0.156863 0 0 0 0.05 0"/>
<feBlend mode="normal" in2="BackgroundImageFix" result="effect1_dropShadow_5065_3544"/>
<feBlend mode="normal" in="SourceGraphic" in2="effect1_dropShadow_5065_3544" result="shape"/>
</filter>
<clipPath id="clip0_5065_3544">
<rect y="0.357422" width="200" height="200" rx="3.33333" fill="white"/>
</clipPath>
<clipPath id="clip1_5065_3544">
<rect x="-230.932" y="21.4004" width="411.465" height="253.209" rx="4.22015" fill="white"/>
</clipPath>
</defs>
</svg>
